#!OML:ASF H:\MichaelJackson\Top Level 1\Subject 1\Session 1\male.ASF
:FULLY-SPECIFIED
:DEGREES
1059
root 7.45347 15.9616 34.1333 -171.313 -214.579 -175.816
lowerback -1.25655 -5.56695 0.683839
upperback -1.2358 -7.44317 -3.44754
thorax -1.11756 -3.75279 -3.9104
lowerneck -7.43691 -5.26402 -1.92227
upperneck 5.64329 -7.10963 3.57333
head 3.35857 -3.42947 1.12729
rclavicle -4.93483e-014 -2.38542e-014
rhumerus 23.1073 -43.8358 -15.0769
rradius 22.2734
rwrist 8.90401
rhand -37.8338 -59.7112
rfingers 7.12502
rthumb -10.879 -449.409
lclavicle -4.93483e-014 -2.38542e-014
lhumerus -54.2807 -30.3483 113.036
lradius 54.3863
lwrist 20.8339
lhand 22.2606 36.1763
lfingers 7.12502
lthumb 46.6348 59.0018
rfemur -22.3478 -5.30859 -2.54629
rtibia 39.828
rfoot -21.1741 -3.78163
rtoes -41.1309
lfemur -4.32756 -8.41336 -1.4978
ltibia 17.7845
lfoot -33.6077 -16.831
ltoes -17.4821
1060
root 7.41935 15.9488 34.1436 -171.166 -214.652 -175.764
lowerback -1.08927 -5.48468 0.65623
upperback -1.20846 -7.33462 -3.45175
thorax -1.17157 -3.69817 -3.88485
lowerneck -7.16078 -5.2969 -1.81815
upperneck 4.97916 -7.14951 3.642
head 3.07628 -3.4545 1.14298
rclavicle 1.30701e-014 -1.19271e-014
rhumerus 24.2979 -46.7564 -15.2862
rradius 21.7561
rwrist 7.30122
rhand -41.0752 -59.5133
rfingers 7.12502
rthumb -14.0041 -449.022
lclavicle 1.30701e-014 -1.19271e-014
lhumerus -54.4822 -30.2362 113.096
lradius 54.7153
lwrist 20.7003
lhand 21.8239 35.9936
lfingers 7.12502
lthumb 46.2302 58.9917
rfemur -22.7585 -5.17564 -2.47194
rtibia 40.3701
rfoot -21.2811 -3.94968
rtoes -40.7732
lfemur -4.37903 -8.94736 -1.4057
ltibia 17.5578
lfoot -33.5701 -16.012
ltoes -18.1661
1061
root 7.38464 15.9412 34.1591 -171.02 -214.866 -175.721
lowerback -0.96444 -5.48999 0.599225
upperback -1.18976 -7.34263 -3.49357
thorax -1.22093 -3.70191 -3.88425
lowerneck -6.80449 -5.2783 -1.64979
upperneck 4.34525 -7.13543 3.84792
head 2.79482 -3.44821 1.19681
rclavicle 9.63609e-014 9.54166e-015
rhumerus 21.7704 -44.88 -11.5286
rradius 22.3615
rwrist 1.76305
rhand -43.037 -57.8848
rfingers 7.12502
rthumb -15.894 -447.252
lclavicle 9.63609e-014 9.54166e-015
lhumerus -54.7968 -30.0746 113.069
lradius 55.1001
lwrist 20.4732
lhand 21.5394 35.6153
lfingers 7.12502
lthumb 45.9663 58.7238
rfemur -23.0227 -4.93178 -2.36369
rtibia 40.7971
rfoot -21.2964 -4.36027
rtoes -40.4255
lfemur -4.50516 -9.44025 -1.23575
ltibia 17.3241
lfoot -33.4301 -15.6826
ltoes -18.4438
1062
root 7.35109 15.9387 34.1783 -170.874 -215.184 -175.708
lowerback -0.913219 -5.58701 0.544845
upperback -1.1779 -7.47254 -3.56642
thorax -1.24991 -3.76691 -3.92221
lowerneck -6.43059 -5.19835 -1.42863
upperneck 3.82009 -7.05039 4.16925
head 2.55117 -3.4028 1.28104
rclavicle 6.28657e-014 -5.56597e-015
rhumerus 17.9915 -40.2468 -6.60498
rradius 23.6002
rwrist -4.68298
rhand -43.8634 -55.9866
rfingers 7.12502
rthumb -16.6897 -445.289
lclavicle 6.28657e-014 -5.56597e-015
lhumerus -55.1563 -29.8754 112.934
lradius 55.4485
lwrist 20.305
lhand 21.3928 35.1712
lfingers 7.12502
lthumb 45.8303 58.336
rfemur -23.1903 -4.62743 -2.20882
rtibia 41.1213
rfoot -21.2343 -4.91305
rtoes -40.0628
lfemur -4.71634 -9.87129 -1.00405
ltibia 17.1287
lfoot -33.2283 -15.6464
ltoes -18.4402
1063
root 7.32064 15.941 34.1988 -170.738 -215.546 -175.763
lowerback -0.960335 -5.75687 0.542147
upperback -1.17122 -7.69884 -3.64815
thorax -1.24484 -3.88081 -4.00604
lowerneck -6.09921 -5.06204 -1.18761
upperneck 3.47015 -6.89599 4.54901
head 2.376 -3.32006 1.38015
rclavicle 1.51076e-014 -1.27222e-014
rhumerus 15.0291 -35.363 -2.82278
rradius 24.9394
rwrist -9.00217
rhand -43.6863 -54.3799
rfingers 7.12502
rthumb -16.5192 -443.697
lclavicle 1.51076e-014 -1.27222e-014
lhumerus -55.4923 -29.6831 112.722
lradius 55.676
lwrist 20.3748
lhand 21.2872 34.7385
lfingers 7.12502
lthumb 45.7323 57.9437
rfemur -23.3172 -4.29125 -1.98285
rtibia 41.3557
rfoot -21.1098 -5.52321
rtoes -39.6799
lfemur -5.00517 -10.2244 -0.717199
ltibia 17.0136
lfoot -33.0027 -15.64
ltoes -18.398
1064
root 7.29483 15.947 34.2183 -170.617 -215.885 -175.9
lowerback -1.11286 -5.96601 0.616413
upperback -1.17088 -7.97676 -3.71364
thorax -1.20047 -4.02131 -4.12595
lowerneck -5.8539 -4.88319 -0.959387
upperneck 3.32665 -6.68647 4.89749
head 2.28345 -3.20821 1.46914
rclavicle 1.22253e-013 1.74931e-014
rhumerus 13.2616 -31.6393 -0.570061
rradius 26.0294
rwrist -10.046
rhand -42.5827 -53.2118
rfingers 7.12502
rthumb -15.4564 -442.614
lclavicle 1.22253e-013 1.74931e-014
lhumerus -55.7508 -29.5547 112.496
lradius 55.7403
lwrist 20.8115
lhand 21.1187 34.5089
lfingers 7.12502
lthumb 45.5758 57.778
rfemur -23.4542 -3.9388 -1.69013
rtibia 41.5138
rfoot -20.944 -6.11867
rtoes -39.2951
lfemur -5.34782 -10.51 -0.404084
ltibia 17.0029
lfoot -32.7844 -15.4385
ltoes -18.4473
1065
root 7.27448 15.9556 34.2345 -170.521 -216.128 -176.12
lowerback -1.3582 -6.17 0.773889
upperback -1.17583 -8.24775 -3.73879
thorax -1.11652 -4.15885 -4.26124
lowerneck -5.71605 -4.68417 -0.771031
upperneck 3.376 -6.44765 5.11936
head 2.2694 -3.08162 1.52108
rclavicle 7.45443e-016 1.19271e-014
rhumerus 12.4024 -29.2759 0.570506
rradius 26.7653
rwrist -8.52099
rhand -41.2425 -52.9394
rfingers 7.12502
rthumb -14.1653 -442.436
lclavicle 7.45443e-016 1.19271e-014
lhumerus -55.8956 -29.5447 112.332
lradius 55.6445
lwrist 21.64
lhand 20.832 34.5995
lfingers 7.12502
lthumb 45.3093 57.9762
rfemur -23.638 -3.5728 -1.34739
rtibia 41.6089
rfoot -20.7589 -6.63757
rtoes -38.9312
lfemur -5.69664 -10.7503 -0.0946628
ltibia 17.0975
lfoot -32.5883 -14.8686
ltoes -18.7006
1066
root 7.25962 15.9652 34.2463 -170.46 -216.212 -176.408
lowerback -1.65977 -6.32538 0.998612
upperback -1.19089 -8.45523 -3.70813
thorax -1.0093 -4.26471 -4.38412
lowerneck -5.66265 -4.48961 -0.651234
upperneck 3.55944 -6.20724 5.16686
head 2.31012 -2.95638 1.52583
rclavicle 8.01599e-014 2.06736e-014
rhumerus 12.1661 -28.0221 1.03806
rradius 27.156
rwrist -5.87876
rhand -39.9257 -53.3999
rfingers 7.12502
rthumb -12.8961 -442.981
lclavicle 8.01599e-014 2.06736e-014
lhumerus -55.9378 -29.6903 112.303
lradius 55.4418
lwrist 22.7693
lhand 20.4278 35.0092
lfingers 7.12502
lthumb 44.9333 58.535
rfemur -23.8868 -3.19157 -0.982875
rtibia 41.654
rfoot -20.5756 -7.02791
rtoes -38.6065
lfemur -5.99147 -10.957 0.179255
ltibia 17.2743
lfoot -32.4003 -13.8885
ltoes -19.1306
1067
root 7.24957 15.9741 34.2531 -170.436 -216.094 -176.728
lowerback -1.96504 -6.4001 1.25879
upperback -1.21662 -8.55741 -3.62462
thorax -0.900116 -4.31764 -4.47421
lowerneck -5.66343 -4.3236 -0.609332
upperneck 3.79635 -5.99215 5.02838
head 2.37461 -2.84842 1.48151
rclavicle -6.60959e-015 -7.95139e-016
rhumerus 12.3402 -27.5336 1.14868
rradius 27.2365
rwrist -3.49195
rhand -38.8267 -54.1109
rfingers 7.12502
rthumb -11.8365 -443.756
lclavicle -6.60959e-015 -7.95139e-016
lhumerus -55.9099 -30.0087 112.455
lradius 55.2052
lwrist 23.9942
lhand 19.957 35.6373
lfingers 7.12502
lthumb 44.495 59.3331
rfemur -24.1987 -2.7949 -0.638315
rtibia 41.6632
rfoot -20.414 -7.25665
rtoes -38.3453
lfemur -6.1756 -11.1237 0.381523
ltibia 17.4948
lfoot -32.2038 -12.5541
ltoes -19.6787
1068
root 7.24316 15.9812 34.2551 -170.461 -215.766 -177.053
lowerback -2.21614 -6.39007 1.51245
upperback -1.25923 -8.54873 -3.49823
thorax -0.821309 -4.31489 -4.51049
lowerneck -5.63803 -4.19004 -0.640568
upperneck 3.99936 -5.80496 4.75392
head 2.42152 -2.76078 1.40542
rclavicle 1.05853e-014 7.95139e-015
rhumerus 12.8191 -27.58 1.01116
rradius 27.0706
rwrist -2.10844
rhand -37.994 -54.6393
rfingers 7.12502
rthumb -11.0335 -444.329
lclavicle 1.05853e-014 7.95139e-015
lhumerus -55.8657 -30.4445 112.783
lradius 55.0074
lwrist 25.0587
lhand 19.5144 36.3304
lfingers 7.12502
lthumb 44.0825 60.1824
rfemur -24.5494 -2.38383 -0.337752
rtibia 41.6487
rfoot -20.2933 -7.31216
rtoes -38.1601
lfemur -6.20372 -11.2461 0.498409
ltibia 17.7158
lfoot -31.9862 -10.9968
ltoes -20.2697
1069
root 7.23902 15.986 34.253 -170.539 -215.253 -177.349
lowerback -2.36025 -6.306 1.72143
upperback -1.30871 -8.44185 -3.35257
thorax -0.790391 -4.26281 -4.48976
lowerneck -5.5806 -4.09685 -0.727031
upperneck 4.12052 -5.65971 4.42115
head 2.43674 -2.69881 1.31937
rclavicle 1.49884e-013 1.35174e-014
rhumerus 13.4479 -27.879 0.743124
rradius 26.7826
rwrist -2.11551
rhand -37.5734 -54.9323
rfingers 7.12502
rthumb -10.6278 -444.644
lclavicle 1.49884e-013 1.35174e-014
lhumerus -55.8277 -30.9462 113.232
lradius 54.8931
lwrist 25.7117
lhand 19.2422 36.9338
lfingers 7.12502
lthumb 43.8285 60.8803
rfemur -24.9027 -1.97357 -0.103158
rtibia 41.6202
rfoot -20.2254 -7.19951
rtoes -38.0504
lfemur -6.05677 -11.323 0.521616
ltibia 17.8965
lfoot -31.7485 -9.38453
ltoes -20.8522
1070
root 7.23615 15.9888 34.248 -170.67 -214.604 -177.592
lowerback -2.36643 -6.17137 1.86081
upperback -1.35687 -8.26622 -3.21619
thorax -0.819646 -4.17638 -4.42431
lowerneck -5.48461 -4.04201 -0.830521
upperneck 4.13956 -5.56122 4.10991
head 2.41404 -2.66185 1.2426
rclavicle 6.60959e-015 1.82882e-014
rhumerus 14.0945 -28.2063 0.429228
rradius 26.4908
rwrist -3.38062
rhand -37.5923 -55.0631
rfingers 7.12502
rthumb -10.646 -444.773
lclavicle 6.60959e-015 1.82882e-014
lhumerus -55.8165 -31.4532 113.727
lradius 54.8581
lwrist 25.7903
lhand 19.2701 37.2852
lfingers 7.12502
lthumb 43.8546 61.2221
rfemur -25.2223 -1.588 0.0587296
rtibia 41.5839
rfoot -20.2162 -6.93633
rtoes -38.0095
lfemur -5.73912 -11.3562 0.458158
ltibia 18.0068
lfoot -31.5008 -7.88055
ltoes -21.3633
